HIERARCHY
ROOT joint_Root
{
	OFFSET 0.0 0.0 0.0
	CHANNELS 6 Xposition Yposition Zposition Zrotation Xrotation Yrotation 
	JOINT Hips
	{
		OFFSET 4.5925 91.4895 -427.239
		CHANNELS 6 Xposition Yposition Zposition Zrotation Xrotation Yrotation 
		JOINT Spine
		{
			OFFSET 15.7357 0.0 0.0
			CHANNELS 6 Xposition Yposition Zposition Zrotation Xrotation Yrotation 
			JOINT Chest
			{
				OFFSET 8.98455 -0.406207 0.0
				CHANNELS 6 Xposition Yposition Zposition Zrotation Xrotation Yrotation 
				JOINT Neck
				{
					OFFSET 16.3773 0.0 0.0
					CHANNELS 6 Xposition Yposition Zposition Zrotation Xrotation Yrotation 
					JOINT Head
					{
						OFFSET 6.45672 0.0 0.0
						CHANNELS 6 Xposition Yposition Zposition Zrotation Xrotation Yrotation 
						End Site
						{
							OFFSET 0.0 0.0 0.0
						}
					}
				}
				JOINT Shoulder_L
				{
					OFFSET 12.9942 -0.242716 4.98039
					CHANNELS 6 Xposition Yposition Zposition Zrotation Xrotation Yrotation 
					JOINT UpperArm_L
					{
						OFFSET 5.34809 0.0 0.0
						CHANNELS 6 Xposition Yposition Zposition Zrotation Xrotation Yrotation 
						JOINT LowerArm_L
						{
							OFFSET 24.3286 1.87007e-05 0.0
							CHANNELS 6 Xposition Yposition Zposition Zrotation Xrotation Yrotation 
							JOINT Hand_L
							{
								OFFSET 22.2916 0.0 0.0
								CHANNELS 6 Xposition Yposition Zposition Zrotation Xrotation Yrotation 
								End Site
								{
									OFFSET 0.0 0.0 0.0
								}
							}
						}
					}
				}
				JOINT Shoulder_R
				{
					OFFSET 12.9945 -0.242716 -4.98039
					CHANNELS 6 Xposition Yposition Zposition Zrotation Xrotation Yrotation 
					JOINT UpperArm_R
					{
						OFFSET -5.34813 0.0 0.0
						CHANNELS 6 Xposition Yposition Zposition Zrotation Xrotation Yrotation 
						JOINT LowerArm_R
						{
							OFFSET -24.3289 0.000322201 0.0
							CHANNELS 6 Xposition Yposition Zposition Zrotation Xrotation Yrotation 
							JOINT Hand_R
							{
								OFFSET -22.2915 -0.000108084 0.0
								CHANNELS 6 Xposition Yposition Zposition Zrotation Xrotation Yrotation 
								End Site
								{
									OFFSET 0.0 0.0 0.0
								}
							}
						}
					}
				}
			}
		}
		JOINT UpperLeg_L
		{
			OFFSET -2.19248 -6.46944 0.0
			CHANNELS 6 Xposition Yposition Zposition Zrotation Xrotation Yrotation 
			JOINT LowerLeg_L
			{
				OFFSET 39.0811 0.0 -1.23785e-05
				CHANNELS 6 Xposition Yposition Zposition Zrotation Xrotation Yrotation 
				JOINT Foot_L
				{
					OFFSET 40.9854 0.0 -1.26872e-05
					CHANNELS 6 Xposition Yposition Zposition Zrotation Xrotation Yrotation 
					JOINT Toes_L
					{
						OFFSET 11.7543 0.0 0.0
						CHANNELS 6 Xposition Yposition Zposition Zrotation Xrotation Yrotation 
						End Site
						{
							OFFSET 0.0 0.0 0.0
						}
					}
				}
			}
		}
		JOINT UpperLeg_R
		{
			OFFSET -2.19251 6.46944 0.0
			CHANNELS 6 Xposition Yposition Zposition Zrotation Xrotation Yrotation 
			JOINT LowerLeg_R
			{
				OFFSET -39.0811 -0.00228153 -0.0401928
				CHANNELS 6 Xposition Yposition Zposition Zrotation Xrotation Yrotation 
				JOINT Foot_R
				{
					OFFSET -40.9854 0.0 0.0
					CHANNELS 6 Xposition Yposition Zposition Zrotation Xrotation Yrotation 
					JOINT Toes_R
					{
						OFFSET -11.7543 0.0 0.0
						CHANNELS 6 Xposition Yposition Zposition Zrotation Xrotation Yrotation 
						End Site
						{
							OFFSET 0.0 0.0 0.0
						}
					}
				}
			}
		}
	}
}
MOTION
Frames:	9
Frame Time:	0.0333333
0.000000 0.000000 0.000000 0.000000 0.000000 -0.000000 -1.427830 89.805700 -2.824490 89.612300 -2.543000 14.328400 15.735700 0.000005 -0.000001 89.217500 75.155300 -88.003600 8.984550 -0.406207 -0.000000 21.924700 -0.245615 2.485800 16.377300 -0.000001 -0.000001 10.792800 -2.232820 3.865040 6.456720 -0.000001 -0.000000 -7.082470 -1.486430 7.964330 12.994200 -0.242716 4.980390 -90.148200 0.542713 -74.730500 5.348090 -0.000007 -0.000001 -77.782700 -9.888730 -75.585000 24.328600 0.000019 0.000005 40.634000 -17.101500 -108.916000 22.291600 -0.000001 0.000005 9.547790 4.899570 9.386340 12.994500 -0.242716 -4.980390 89.242400 10.897000 -85.998900 -5.348130 -0.000001 -0.000004 -53.169800 33.503800 -26.261200 -24.328900 0.000322 -0.000009 1.272680 3.367950 -20.730300 -22.291500 -0.000108 -0.000004 16.337400 5.423170 -3.706140 -2.192480 -6.469440 -0.000000 -172.975000 -12.486200 -0.191715 39.081100 -0.000007 -0.000012 -0.223234 0.305303 36.174200 40.985400 -0.000006 -0.000013 -0.314057 5.460130 -71.106100 11.754300 -0.000000 0.000003 -0.000133 -0.001310 -16.627500 -2.192510 6.469440 -0.000001 173.893000 18.973800 -179.115000 -39.081100 -0.002282 -0.040193 -0.179020 0.250492 36.047300 -40.985400 0.000008 0.000006 5.423980 12.015600 -72.613900 -11.754300 -0.000006 -0.000006 -0.001349 -0.020243 -17.396300
0.000000 0.000000 0.000000 0.000000 0.000000 -0.000000 -1.430060 89.804400 -2.830250 89.631700 -2.550780 14.319200 15.735700 0.000005 -0.000001 89.269300 75.149000 -88.068600 8.984550 -0.406207 -0.000000 21.937200 -0.221169 2.454410 16.377300 -0.000001 -0.000001 10.768500 -2.237480 3.857070 6.456720 -0.000001 -0.000000 -7.068010 -1.489710 7.957540 12.994200 -0.242716 4.980390 -90.151600 0.553600 -74.687700 5.348090 -0.000007 -0.000001 -77.816000 -9.854860 -75.603300 24.328600 0.000019 0.000005 40.695900 -17.108000 -108.884000 22.291600 -0.000001 0.000005 9.481320 4.899730 9.383250 12.994500 -0.242716 -4.980390 89.243700 10.909600 -86.010400 -5.348130 -0.000001 -0.000004 -53.133100 33.476000 -26.297400 -24.328900 0.000322 -0.000009 1.311450 3.467880 -20.745300 -22.291500 -0.000108 -0.000004 16.305200 5.421010 -3.633210 -2.192480 -6.469440 -0.000000 -172.993000 -12.505500 -0.200273 39.081100 -0.000007 -0.000012 -0.224274 0.306759 36.171300 40.985400 -0.000006 -0.000013 -0.317094 5.448760 -71.102300 11.754300 -0.000000 0.000003 -0.000126 -0.001256 -16.625500 -2.192510 6.469440 -0.000001 173.881000 18.934500 -179.133000 -39.081100 -0.002282 -0.040193 -0.182395 0.255093 36.051200 -40.985400 0.000008 0.000006 5.327920 12.012700 -72.591300 -11.754300 -0.000006 -0.000006 -0.001302 -0.019608 -17.370500
0.000000 0.000000 0.000000 0.000000 0.000000 -0.000000 -1.441300 89.810400 -2.830380 89.616100 -2.537690 14.298800 15.735700 0.000005 -0.000001 89.318500 75.146500 -88.118100 8.984550 -0.406207 -0.000000 21.942300 -0.196383 2.449020 16.377300 -0.000001 -0.000001 10.715900 -2.255760 3.820000 6.456720 -0.000001 -0.000000 -7.037610 -1.518410 7.967010 12.994200 -0.242716 4.980390 -90.157800 0.575994 -74.677500 5.348090 -0.000007 -0.000001 -77.859500 -9.844780 -75.618000 24.328600 0.000019 0.000005 40.688500 -17.102700 -108.883000 22.291600 -0.000001 0.000005 9.426200 4.899900 9.379930 12.994500 -0.242716 -4.980390 89.235000 10.933500 -85.973300 -5.348130 -0.000001 -0.000004 -53.057800 33.529600 -26.356500 -24.328900 0.000322 -0.000009 1.295620 3.423390 -20.759700 -22.291500 -0.000108 -0.000004 16.299700 5.420980 -3.631960 -2.192480 -6.469440 -0.000000 -172.975000 -12.508500 -0.216203 39.081100 -0.000007 -0.000012 -0.222080 0.303965 36.152700 40.985400 -0.000006 -0.000013 -0.318423 5.467820 -71.087200 11.754300 -0.000000 0.000003 -0.000120 -0.001206 -16.623600 -2.192510 6.469440 -0.000001 173.917000 18.945800 -179.140000 -39.081100 -0.002282 -0.040193 -0.177747 0.248925 36.027400 -40.985400 0.000008 0.000006 5.401400 11.975100 -72.598400 -11.754300 -0.000006 -0.000006 -0.001437 -0.021434 -17.444700
0.000000 0.000000 0.000000 0.000000 0.000000 -0.000000 -1.442630 89.810300 -2.822110 89.611300 -2.492080 14.305100 15.735700 0.000005 -0.000001 89.303500 75.134000 -88.111400 8.984550 -0.406207 -0.000000 21.967200 -0.204967 2.434300 16.377300 -0.000001 -0.000001 10.666200 -2.263920 3.802880 6.456720 -0.000001 -0.000000 -7.011620 -1.500580 7.964840 12.994200 -0.242716 4.980390 -90.166200 0.606598 -74.679500 5.348090 -0.000007 -0.000001 -77.889500 -9.871800 -75.663900 24.328600 0.000019 0.000005 40.730200 -17.107200 -108.862000 22.291600 -0.000001 0.000005 9.451820 4.899560 9.386600 12.994500 -0.242716 -4.980390 89.233200 10.944600 -85.967500 -5.348130 -0.000001 -0.000004 -53.033200 33.548000 -26.392600 -24.328900 0.000322 -0.000009 1.291310 3.415030 -20.742800 -22.291500 -0.000108 -0.000004 16.313200 5.422910 -3.697190 -2.192480 -6.469440 -0.000000 -172.982000 -12.416400 -0.213442 39.081100 -0.000007 -0.000012 -0.226336 0.309818 36.150200 40.985400 -0.000006 -0.000013 -0.334232 5.452980 -71.088500 11.754300 -0.000000 0.000003 -0.000137 -0.001348 -16.628900 -2.192510 6.469440 -0.000001 173.902000 18.996000 -179.114000 -39.081100 -0.002282 -0.040193 -0.175726 0.246232 36.017900 -40.985400 0.000008 0.000006 5.392930 12.023300 -72.601500 -11.754300 -0.000006 -0.000006 -0.001389 -0.020794 -17.418700
0.000000 0.000000 0.000000 0.000000 0.000000 -0.000000 -1.438520 89.813100 -2.820960 89.604200 -2.476650 14.278200 15.735700 0.000005 -0.000001 89.317100 75.138800 -88.133600 8.984550 -0.406207 -0.000000 21.957600 -0.199121 2.415990 16.377300 -0.000001 -0.000001 10.606800 -2.276240 3.784310 6.456720 -0.000001 -0.000000 -6.954190 -1.494160 7.948880 12.994200 -0.242716 4.980390 -90.162900 0.594635 -74.680700 5.348090 -0.000007 -0.000001 -77.982700 -9.882560 -75.665200 24.328600 0.000019 0.000005 40.756900 -17.117900 -108.856000 22.291600 -0.000001 0.000005 9.432730 4.899990 9.377990 12.994500 -0.242716 -4.980390 89.224600 10.959800 -85.928400 -5.348130 -0.000001 -0.000004 -53.021900 33.596500 -26.417400 -24.328900 0.000322 -0.000009 1.271260 3.360720 -20.749900 -22.291500 -0.000108 -0.000004 16.287000 5.421870 -3.662280 -2.192480 -6.469440 -0.000000 -172.982000 -12.441300 -0.236736 39.081100 -0.000007 -0.000012 -0.223994 0.306672 36.144900 40.985400 -0.000006 -0.000013 -0.317703 5.479130 -71.087600 11.754300 -0.000000 0.000003 -0.000124 -0.001238 -16.624800 -2.192510 6.469440 -0.000001 173.910000 19.022300 -179.134000 -39.081100 -0.002282 -0.040193 -0.177150 0.248292 36.006700 -40.985400 0.000008 0.000006 5.416430 12.015100 -72.601200 -11.754300 -0.000006 -0.000006 -0.001217 -0.018444 -17.323200
0.000000 0.000000 0.000000 0.000000 0.000000 -0.000000 -1.434240 89.806500 -2.810990 89.600600 -2.492190 14.259900 15.735700 0.000005 -0.000001 89.332800 75.143300 -88.160500 8.984550 -0.406207 -0.000000 21.948500 -0.192590 2.392120 16.377300 -0.000001 -0.000001 10.554500 -2.266330 3.748430 6.456720 -0.000001 -0.000000 -6.907660 -1.494150 7.946120 12.994200 -0.242716 4.980390 -90.171100 0.623693 -74.662600 5.348090 -0.000007 -0.000001 -78.014500 -9.904330 -75.700100 24.328600 0.000019 0.000005 40.720600 -17.072900 -108.834000 22.291600 -0.000001 0.000005 9.486900 4.897000 9.437540 12.994500 -0.242716 -4.980390 89.227200 10.960900 -85.942300 -5.348130 -0.000001 -0.000004 -53.068100 33.585300 -26.363500 -24.328900 0.000322 -0.000009 1.287580 3.398110 -20.782100 -22.291500 -0.000108 -0.000004 16.319600 5.422180 -3.672530 -2.192480 -6.469440 -0.000000 -172.990000 -12.410200 -0.261785 39.081100 -0.000007 -0.000012 -0.224393 0.306894 36.173700 40.985400 -0.000006 -0.000013 -0.322053 5.466060 -71.112600 11.754300 -0.000000 0.000003 -0.000126 -0.001253 -16.625400 -2.192510 6.469440 -0.000001 173.904000 19.013400 -179.154000 -39.081100 -0.002282 -0.040193 -0.183280 0.256601 36.020200 -40.985400 0.000008 0.000006 5.318940 12.037700 -72.588700 -11.754300 -0.000006 -0.000006 -0.001372 -0.020555 -17.409000
0.000000 0.000000 0.000000 0.000000 0.000000 -0.000000 -1.431100 89.817000 -2.802220 89.600500 -2.504540 14.245800 15.735700 0.000005 -0.000001 89.369700 75.146900 -88.209800 8.984550 -0.406207 -0.000000 21.941300 -0.175525 2.363640 16.377300 -0.000001 -0.000001 10.487000 -2.283430 3.711460 6.456720 -0.000001 -0.000000 -6.883550 -1.502970 7.930960 12.994200 -0.242716 4.980390 -90.170200 0.619706 -74.643700 5.348090 -0.000007 -0.000001 -78.042600 -9.899680 -75.684900 24.328600 0.000019 0.000005 40.803300 -17.084500 -108.794000 22.291600 -0.000001 0.000005 9.477160 4.897370 9.430240 12.994500 -0.242716 -4.980390 89.219500 10.978700 -85.908100 -5.348130 -0.000001 -0.000004 -53.066100 33.638300 -26.352400 -24.328900 0.000322 -0.000009 1.264120 3.337190 -20.776300 -22.291500 -0.000108 -0.000004 16.303500 5.421800 -3.659700 -2.192480 -6.469440 -0.000000 -172.982000 -12.478800 -0.235828 39.081100 -0.000007 -0.000012 -0.222541 0.304899 36.125500 40.985400 -0.000006 -0.000013 -0.314694 5.471780 -71.098600 11.754300 -0.000000 0.000003 -0.000129 -0.001278 -16.626300 -2.192510 6.469440 -0.000001 173.925000 18.999600 -179.144000 -39.081100 -0.002282 -0.040193 -0.175198 0.245812 35.984000 -40.985400 0.000008 0.000006 5.415230 12.009000 -72.603600 -11.754300 -0.000006 -0.000006 -0.001346 -0.020208 -17.394800
0.000000 0.000000 0.000000 0.000000 0.000000 -0.000000 -1.423420 89.817800 -2.781200 89.577800 -2.540980 14.222400 15.735700 0.000005 -0.000001 89.419500 75.156900 -88.262000 8.984550 -0.406207 -0.000000 21.921400 -0.150703 2.354020 16.377300 -0.000001 -0.000001 10.409400 -2.290150 3.645660 6.456720 -0.000001 -0.000000 -6.889620 -1.518150 7.930920 12.994200 -0.242716 4.980390 -90.179800 0.654399 -74.635400 5.348090 -0.000007 -0.000001 -78.024100 -9.915630 -75.651800 24.328600 0.000019 0.000005 40.724500 -17.050500 -108.809000 22.291600 -0.000001 0.000005 9.444050 4.897960 9.418540 12.994500 -0.242716 -4.980390 89.215400 10.998600 -85.894300 -5.348130 -0.000001 -0.000004 -53.090700 33.638100 -26.304300 -24.328900 0.000322 -0.000009 1.277460 3.377760 -20.746300 -22.291500 -0.000108 -0.000004 16.299900 5.422800 -3.693490 -2.192480 -6.469440 -0.000000 -172.958000 -12.479000 -0.246439 39.081100 -0.000007 -0.000012 -0.224611 0.307699 36.128700 40.985400 -0.000006 -0.000013 -0.324297 5.454530 -71.112000 11.754300 -0.000000 0.000003 -0.000118 -0.001184 -16.622800 -2.192510 6.469440 -0.000001 173.967000 18.958400 -179.157000 -39.081100 -0.002282 -0.040193 -0.172665 0.242418 35.973300 -40.985400 0.000008 0.000006 5.463120 11.987500 -72.619500 -11.754300 -0.000006 -0.000006 -0.001441 -0.021489 -17.446900
0.000000 0.000000 0.000000 0.000000 0.000000 -0.000000 -1.415200 89.821800 -2.761130 89.598000 -2.518310 14.217600 15.735700 0.000005 -0.000001 89.369700 75.168700 -88.231600 8.984550 -0.406207 -0.000000 21.897700 -0.178170 2.320330 16.377300 -0.000001 -0.000001 10.302300 -2.295840 3.636340 6.456720 -0.000001 -0.000000 -6.854380 -1.503060 7.876340 12.994200 -0.242716 4.980390 -90.185600 0.675027 -74.628800 5.348090 -0.000007 -0.000001 -77.963800 -9.909900 -75.569800 24.328600 0.000019 0.000005 40.744200 -17.034700 -108.781000 22.291600 -0.000001 0.000005 9.485110 4.899570 9.386400 12.994500 -0.242716 -4.980390 89.216200 11.011300 -85.903400 -5.348130 -0.000001 -0.000004 -53.100800 33.690500 -26.260300 -24.328900 0.000322 -0.000009 1.257580 3.331470 -20.710400 -22.291500 -0.000108 -0.000004 16.304300 5.422520 -3.684270 -2.192480 -6.469440 -0.000000 -172.996000 -12.463100 -0.220288 39.081100 -0.000007 -0.000012 -0.221625 0.303961 36.097100 40.985400 -0.000006 -0.000013 -0.311025 5.462110 -71.117400 11.754300 -0.000000 0.000003 -0.000124 -0.001239 -16.624900 -2.192510 6.469440 -0.000001 173.899000 19.016700 -179.122000 -39.081100 -0.002282 -0.040193 -0.178924 0.251331 35.942000 -40.985400 0.000008 0.000006 5.343680 12.045600 -72.591700 -11.754300 -0.000006 -0.000006 -0.001512 -0.022426 -17.485000
